<mxfile host="app.diagrams.net" modified="2021-12-28T09:31:46.500Z" agent="5.0 (Macintosh; Intel Mac OS X 10_15_7) AppleWebKit/537.36 (KHTML, like Gecko) Chrome/96.0.4664.110 Safari/537.36" etag="KnlEd1LYfQRNqz37ukYL" version="16.1.0" type="github">
  <diagram id="-_PuM2wYpfCO6fIP_Evk" name="Page-1">
    <mxGraphModel dx="2380" dy="1072" grid="1" gridSize="10" guides="1" tooltips="1" connect="1" arrows="1" fold="1" page="1" pageScale="1" pageWidth="827" pageHeight="1169" math="0" shadow="0">
      <root>
        <mxCell id="0" />
        <mxCell id="1" parent="0" />
        <mxCell id="5-8m9FPlLGpZZx9Ya4Tx-46" value="" style="fillColor=#E8E8E8;strokeColor=#5A6C86;verticalAlign=top;fontStyle=0;fontColor=#5A6C86;strokeWidth=2;" parent="1" vertex="1">
          <mxGeometry x="-490" y="470" width="1010" height="240" as="geometry" />
        </mxCell>
        <mxCell id="5-8m9FPlLGpZZx9Ya4Tx-1" value="" style="fillColor=default;strokeColor=#5A6C86;verticalAlign=top;fontStyle=0;fontColor=#5A6C86;strokeWidth=2;" parent="1" vertex="1">
          <mxGeometry x="-490" y="80" width="1010" height="390" as="geometry" />
        </mxCell>
        <mxCell id="5-8m9FPlLGpZZx9Ya4Tx-27" value="" style="rounded=0;whiteSpace=wrap;html=1;dashed=0;sketch=0;pointerEvents=1;fontFamily=Helvetica;fontSize=12;fontColor=#232F3E;fillColor=#E6E6E6;gradientColor=none;strokeColor=none;" parent="1" vertex="1">
          <mxGeometry x="40" y="160" width="200" height="270" as="geometry" />
        </mxCell>
        <mxCell id="5-8m9FPlLGpZZx9Ya4Tx-2" value="" style="rounded=0;whiteSpace=wrap;html=1;strokeWidth=2;fillColor=none;dashed=1;" parent="1" vertex="1">
          <mxGeometry x="-440" y="120" width="200" height="320" as="geometry" />
        </mxCell>
        <mxCell id="5-8m9FPlLGpZZx9Ya4Tx-7" value="" style="rounded=0;whiteSpace=wrap;html=1;strokeWidth=2;fillColor=none;dashed=1;" parent="1" vertex="1">
          <mxGeometry x="-440" y="506" width="920" height="160" as="geometry" />
        </mxCell>
        <mxCell id="5-8m9FPlLGpZZx9Ya4Tx-8" value="&lt;font color=&quot;#ffffff&quot; style=&quot;font-size: 23px&quot;&gt;1&lt;/font&gt;" style="rounded=1;whiteSpace=wrap;html=1;strokeWidth=2;fillColor=#0066CC;gradientColor=none;strokeColor=#6c8ebf;aspect=fixed;" parent="1" vertex="1">
          <mxGeometry x="-428" y="130" width="30" height="30" as="geometry" />
        </mxCell>
        <mxCell id="5-8m9FPlLGpZZx9Ya4Tx-9" value="" style="rounded=0;whiteSpace=wrap;html=1;strokeWidth=2;fillColor=none;dashed=1;" parent="1" vertex="1">
          <mxGeometry x="-200" y="120" width="200" height="320" as="geometry" />
        </mxCell>
        <mxCell id="5-8m9FPlLGpZZx9Ya4Tx-11" value="" style="rounded=0;whiteSpace=wrap;html=1;strokeWidth=2;fillColor=none;dashed=1;" parent="1" vertex="1">
          <mxGeometry x="40" y="120" width="200" height="320" as="geometry" />
        </mxCell>
        <mxCell id="5-8m9FPlLGpZZx9Ya4Tx-13" value="" style="rounded=0;whiteSpace=wrap;html=1;strokeWidth=2;fillColor=none;dashed=1;" parent="1" vertex="1">
          <mxGeometry x="280" y="120" width="200" height="320" as="geometry" />
        </mxCell>
        <mxCell id="5-8m9FPlLGpZZx9Ya4Tx-15" value="&lt;h3&gt;&lt;font style=&quot;font-size: 14px&quot;&gt;&lt;b&gt;AWS Security Hub&lt;br&gt;&lt;/b&gt;&lt;/font&gt;&lt;font style=&quot;font-size: 14px&quot;&gt;&lt;b&gt;Audit account&lt;/b&gt;&lt;/font&gt;&lt;/h3&gt;" style="sketch=0;points=[[0,0,0],[0.25,0,0],[0.5,0,0],[0.75,0,0],[1,0,0],[0,1,0],[0.25,1,0],[0.5,1,0],[0.75,1,0],[1,1,0],[0,0.25,0],[0,0.5,0],[0,0.75,0],[1,0.25,0],[1,0.5,0],[1,0.75,0]];outlineConnect=0;fontColor=#232F3E;gradientColor=#F54749;gradientDirection=north;fillColor=#C7131F;strokeColor=#ffffff;dashed=0;verticalLabelPosition=bottom;verticalAlign=top;align=center;html=1;fontSize=12;fontStyle=0;aspect=fixed;shape=mxgraph.aws4.resourceIcon;resIcon=mxgraph.aws4.security_hub;" parent="1" vertex="1">
          <mxGeometry x="-360" y="160" width="40" height="40" as="geometry" />
        </mxCell>
        <mxCell id="5-8m9FPlLGpZZx9Ya4Tx-16" value="&lt;h3&gt;Findings&lt;/h3&gt;" style="sketch=0;outlineConnect=0;fontColor=#232F3E;gradientColor=#F54749;fillColor=#C7131F;strokeColor=#ffffff;dashed=0;verticalLabelPosition=bottom;verticalAlign=top;align=center;html=1;fontSize=12;fontStyle=0;aspect=fixed;pointerEvents=1;shape=mxgraph.aws4.finding;gradientDirection=north;" parent="1" vertex="1">
          <mxGeometry x="-360" y="320" width="40" height="44.57" as="geometry" />
        </mxCell>
        <mxCell id="5-8m9FPlLGpZZx9Ya4Tx-17" value="&lt;h3&gt;Amazon EventBridge Rule&lt;/h3&gt;" style="sketch=0;outlineConnect=0;fontColor=#232F3E;gradientColor=#F54749;fillColor=#C7131F;strokeColor=#ffffff;dashed=0;verticalLabelPosition=bottom;verticalAlign=top;align=center;html=1;fontSize=12;fontStyle=0;aspect=fixed;pointerEvents=1;shape=mxgraph.aws4.rule_2;fontFamily=Helvetica;gradientDirection=north;" parent="1" vertex="1">
          <mxGeometry x="-120" y="320" width="40" height="44.57" as="geometry" />
        </mxCell>
        <mxCell id="5-8m9FPlLGpZZx9Ya4Tx-18" value="&lt;font color=&quot;#ffffff&quot; style=&quot;font-size: 23px&quot;&gt;2&lt;/font&gt;" style="rounded=1;whiteSpace=wrap;html=1;strokeWidth=2;fillColor=#0066CC;gradientColor=none;strokeColor=#6c8ebf;aspect=fixed;" parent="1" vertex="1">
          <mxGeometry x="-190" y="130" width="30" height="30" as="geometry" />
        </mxCell>
        <mxCell id="5-8m9FPlLGpZZx9Ya4Tx-19" value="&lt;h2&gt;Detect&lt;/h2&gt;" style="text;html=1;strokeColor=none;fillColor=none;align=center;verticalAlign=middle;whiteSpace=wrap;rounded=0;dashed=0;sketch=0;pointerEvents=1;fontFamily=Helvetica;fontSize=12;fontColor=#232F3E;" parent="1" vertex="1">
          <mxGeometry x="-370" y="130" width="60" height="30" as="geometry" />
        </mxCell>
        <mxCell id="5-8m9FPlLGpZZx9Ya4Tx-20" value="&lt;h2&gt;Ingest&lt;/h2&gt;" style="text;html=1;strokeColor=none;fillColor=none;align=center;verticalAlign=middle;whiteSpace=wrap;rounded=0;dashed=0;sketch=0;pointerEvents=1;fontFamily=Helvetica;fontSize=12;fontColor=#232F3E;" parent="1" vertex="1">
          <mxGeometry x="-130" y="130" width="60" height="30" as="geometry" />
        </mxCell>
        <mxCell id="5-8m9FPlLGpZZx9Ya4Tx-21" value="&lt;h2&gt;Remediation&lt;/h2&gt;" style="text;html=1;strokeColor=none;fillColor=none;align=center;verticalAlign=middle;whiteSpace=wrap;rounded=0;dashed=0;sketch=0;pointerEvents=1;fontFamily=Helvetica;fontSize=12;fontColor=#232F3E;" parent="1" vertex="1">
          <mxGeometry x="110" y="130" width="60" height="30" as="geometry" />
        </mxCell>
        <mxCell id="5-8m9FPlLGpZZx9Ya4Tx-22" value="&lt;h2&gt;Log&lt;/h2&gt;" style="text;html=1;strokeColor=none;fillColor=none;align=center;verticalAlign=middle;whiteSpace=wrap;rounded=0;dashed=0;sketch=0;pointerEvents=1;fontFamily=Helvetica;fontSize=12;fontColor=#232F3E;" parent="1" vertex="1">
          <mxGeometry x="350" y="130" width="60" height="30" as="geometry" />
        </mxCell>
        <mxCell id="5-8m9FPlLGpZZx9Ya4Tx-23" value="&lt;h3&gt;AWS Lambda&lt;br&gt;(Excute SSM Doc)&lt;/h3&gt;&lt;h3&gt;&lt;br&gt;&lt;/h3&gt;&lt;div&gt;&lt;br&gt;&lt;/div&gt;" style="sketch=0;outlineConnect=0;fontColor=#232F3E;gradientColor=none;fillColor=#D45B07;strokeColor=none;dashed=0;verticalLabelPosition=bottom;verticalAlign=top;align=center;html=1;fontSize=12;fontStyle=0;aspect=fixed;pointerEvents=1;shape=mxgraph.aws4.lambda_function;fontFamily=Helvetica;" parent="1" vertex="1">
          <mxGeometry x="116" y="320" width="40" height="40" as="geometry" />
        </mxCell>
        <mxCell id="5-8m9FPlLGpZZx9Ya4Tx-24" value="&lt;h3&gt;AWS Step Function&lt;br&gt;(Orchestration)&lt;/h3&gt;" style="sketch=0;points=[[0,0,0],[0.25,0,0],[0.5,0,0],[0.75,0,0],[1,0,0],[0,1,0],[0.25,1,0],[0.5,1,0],[0.75,1,0],[1,1,0],[0,0.25,0],[0,0.5,0],[0,0.75,0],[1,0.25,0],[1,0.5,0],[1,0.75,0]];outlineConnect=0;fontColor=#232F3E;gradientColor=#FF4F8B;gradientDirection=north;fillColor=#BC1356;strokeColor=#ffffff;dashed=0;verticalLabelPosition=bottom;verticalAlign=top;align=center;html=1;fontSize=12;fontStyle=0;aspect=fixed;shape=mxgraph.aws4.resourceIcon;resIcon=mxgraph.aws4.step_functions;pointerEvents=1;fontFamily=Helvetica;" parent="1" vertex="1">
          <mxGeometry x="120" y="200" width="40" height="40" as="geometry" />
        </mxCell>
        <mxCell id="5-8m9FPlLGpZZx9Ya4Tx-25" value="&lt;h3&gt;Amazon SNS&lt;/h3&gt;" style="sketch=0;points=[[0,0,0],[0.25,0,0],[0.5,0,0],[0.75,0,0],[1,0,0],[0,1,0],[0.25,1,0],[0.5,1,0],[0.75,1,0],[1,1,0],[0,0.25,0],[0,0.5,0],[0,0.75,0],[1,0.25,0],[1,0.5,0],[1,0.75,0]];outlineConnect=0;fontColor=#232F3E;gradientColor=#FF4F8B;gradientDirection=north;fillColor=#BC1356;strokeColor=#ffffff;dashed=0;verticalLabelPosition=bottom;verticalAlign=top;align=center;html=1;fontSize=12;fontStyle=0;aspect=fixed;shape=mxgraph.aws4.resourceIcon;resIcon=mxgraph.aws4.sns;pointerEvents=1;fontFamily=Helvetica;" parent="1" vertex="1">
          <mxGeometry x="360" y="200" width="40" height="40" as="geometry" />
        </mxCell>
        <mxCell id="5-8m9FPlLGpZZx9Ya4Tx-26" value="&lt;h3&gt;Amazon CloudWatch logs&lt;/h3&gt;" style="sketch=0;points=[[0,0,0],[0.25,0,0],[0.5,0,0],[0.75,0,0],[1,0,0],[0,1,0],[0.25,1,0],[0.5,1,0],[0.75,1,0],[1,1,0],[0,0.25,0],[0,0.5,0],[0,0.75,0],[1,0.25,0],[1,0.5,0],[1,0.75,0]];points=[[0,0,0],[0.25,0,0],[0.5,0,0],[0.75,0,0],[1,0,0],[0,1,0],[0.25,1,0],[0.5,1,0],[0.75,1,0],[1,1,0],[0,0.25,0],[0,0.5,0],[0,0.75,0],[1,0.25,0],[1,0.5,0],[1,0.75,0]];outlineConnect=0;fontColor=#232F3E;gradientColor=#F34482;gradientDirection=north;fillColor=#BC1356;strokeColor=#ffffff;dashed=0;verticalLabelPosition=bottom;verticalAlign=top;align=center;html=1;fontSize=12;fontStyle=0;aspect=fixed;shape=mxgraph.aws4.resourceIcon;resIcon=mxgraph.aws4.cloudwatch_2;pointerEvents=1;fontFamily=Helvetica;" parent="1" vertex="1">
          <mxGeometry x="360" y="320" width="40" height="40" as="geometry" />
        </mxCell>
        <mxCell id="5-8m9FPlLGpZZx9Ya4Tx-28" value="&lt;h3&gt;Cross account role&lt;/h3&gt;" style="sketch=0;outlineConnect=0;fontColor=#232F3E;gradientColor=none;fillColor=#BF0816;strokeColor=none;dashed=0;verticalLabelPosition=bottom;verticalAlign=top;align=center;html=1;fontSize=12;fontStyle=0;aspect=fixed;pointerEvents=1;shape=mxgraph.aws4.role;rounded=0;fontFamily=Helvetica;" parent="1" vertex="1">
          <mxGeometry x="355" y="555.82" width="50" height="28.2" as="geometry" />
        </mxCell>
        <mxCell id="5-8m9FPlLGpZZx9Ya4Tx-29" value="&lt;h3&gt;SSM Automation&lt;/h3&gt;" style="sketch=0;outlineConnect=0;fontColor=#232F3E;gradientColor=none;fillColor=#B0084D;strokeColor=none;dashed=0;verticalLabelPosition=bottom;verticalAlign=top;align=center;html=1;fontSize=12;fontStyle=0;aspect=fixed;pointerEvents=1;shape=mxgraph.aws4.automation;rounded=0;fontFamily=Helvetica;" parent="1" vertex="1">
          <mxGeometry x="111" y="544.92" width="50" height="50" as="geometry" />
        </mxCell>
        <mxCell id="5-8m9FPlLGpZZx9Ya4Tx-30" value="&lt;h3&gt;&lt;font style=&quot;font-size: 14px&quot;&gt;&lt;b&gt;AWS Security Hub&lt;/b&gt;&lt;/font&gt;&lt;/h3&gt;" style="sketch=0;points=[[0,0,0],[0.25,0,0],[0.5,0,0],[0.75,0,0],[1,0,0],[0,1,0],[0.25,1,0],[0.5,1,0],[0.75,1,0],[1,1,0],[0,0.25,0],[0,0.5,0],[0,0.75,0],[1,0.25,0],[1,0.5,0],[1,0.75,0]];outlineConnect=0;fontColor=#232F3E;gradientColor=#F54749;gradientDirection=north;fillColor=#C7131F;strokeColor=#ffffff;dashed=0;verticalLabelPosition=bottom;verticalAlign=top;align=center;html=1;fontSize=12;fontStyle=0;aspect=fixed;shape=mxgraph.aws4.resourceIcon;resIcon=mxgraph.aws4.security_hub;" parent="1" vertex="1">
          <mxGeometry x="-365" y="544.9200000000001" width="50" height="50" as="geometry" />
        </mxCell>
        <mxCell id="5-8m9FPlLGpZZx9Ya4Tx-31" value="" style="edgeStyle=orthogonalEdgeStyle;html=1;endArrow=none;elbow=vertical;startArrow=open;startFill=0;strokeColor=#000066;rounded=0;fontFamily=Helvetica;fontSize=12;fontColor=#232F3E;strokeWidth=2;" parent="1" edge="1">
          <mxGeometry width="100" relative="1" as="geometry">
            <mxPoint x="200" y="569.42" as="sourcePoint" />
            <mxPoint x="300" y="569.42" as="targetPoint" />
          </mxGeometry>
        </mxCell>
        <mxCell id="5-8m9FPlLGpZZx9Ya4Tx-32" value="" style="edgeStyle=orthogonalEdgeStyle;html=1;endArrow=none;elbow=vertical;startArrow=open;startFill=0;strokeColor=#000066;rounded=0;fontFamily=Helvetica;fontSize=12;fontColor=#232F3E;strokeWidth=2;endSize=6;exitX=0.25;exitY=0.396;exitDx=0;exitDy=0;exitPerimeter=0;entryX=0.478;entryY=0.396;entryDx=0;entryDy=0;entryPerimeter=0;" parent="1" source="5-8m9FPlLGpZZx9Ya4Tx-7" target="5-8m9FPlLGpZZx9Ya4Tx-7" edge="1">
          <mxGeometry width="100" relative="1" as="geometry">
            <mxPoint x="-170.5" y="569.4200000000001" as="sourcePoint" />
            <mxPoint x="-29.5" y="569.4200000000001" as="targetPoint" />
          </mxGeometry>
        </mxCell>
        <mxCell id="5-8m9FPlLGpZZx9Ya4Tx-36" value="" style="edgeStyle=orthogonalEdgeStyle;html=1;endArrow=none;elbow=vertical;startArrow=open;startFill=0;strokeColor=#000066;rounded=0;fontFamily=Helvetica;fontSize=12;fontColor=#232F3E;strokeWidth=2;endSize=6;" parent="1" edge="1">
          <mxGeometry width="100" relative="1" as="geometry">
            <mxPoint x="-340.5" y="420" as="sourcePoint" />
            <mxPoint x="-341" y="530" as="targetPoint" />
            <Array as="points">
              <mxPoint x="-340" y="475" />
            </Array>
          </mxGeometry>
        </mxCell>
        <mxCell id="5-8m9FPlLGpZZx9Ya4Tx-37" value="" style="edgeStyle=orthogonalEdgeStyle;html=1;endArrow=none;elbow=vertical;startArrow=open;startFill=0;strokeColor=#000066;rounded=0;fontFamily=Helvetica;fontSize=12;fontColor=#232F3E;strokeWidth=2;endSize=6;" parent="1" edge="1">
          <mxGeometry width="100" relative="1" as="geometry">
            <mxPoint x="-340.5" y="310" as="sourcePoint" />
            <mxPoint x="-340.5" y="260" as="targetPoint" />
          </mxGeometry>
        </mxCell>
        <mxCell id="5-8m9FPlLGpZZx9Ya4Tx-38" value="" style="edgeStyle=orthogonalEdgeStyle;html=1;endArrow=none;elbow=vertical;startArrow=open;startFill=0;strokeColor=#000066;rounded=0;fontFamily=Helvetica;fontSize=12;fontColor=#232F3E;strokeWidth=2;endSize=6;" parent="1" edge="1">
          <mxGeometry width="100" relative="1" as="geometry">
            <mxPoint x="-139" y="341.79" as="sourcePoint" />
            <mxPoint x="-290" y="341.79" as="targetPoint" />
          </mxGeometry>
        </mxCell>
        <mxCell id="5-8m9FPlLGpZZx9Ya4Tx-39" value="" style="edgeStyle=orthogonalEdgeStyle;html=1;endArrow=none;elbow=vertical;startArrow=open;startFill=0;strokeColor=#000066;rounded=0;fontFamily=Helvetica;fontSize=12;fontColor=#232F3E;strokeWidth=2;endSize=6;" parent="1" edge="1">
          <mxGeometry width="100" relative="1" as="geometry">
            <mxPoint x="90" y="220" as="sourcePoint" />
            <mxPoint x="-100" y="300" as="targetPoint" />
            <Array as="points">
              <mxPoint x="-100" y="220" />
            </Array>
          </mxGeometry>
        </mxCell>
        <mxCell id="5-8m9FPlLGpZZx9Ya4Tx-41" value="" style="edgeStyle=orthogonalEdgeStyle;html=1;endArrow=open;elbow=vertical;startArrow=open;startFill=0;strokeColor=#000066;rounded=0;fontFamily=Helvetica;fontSize=12;fontColor=#232F3E;strokeWidth=2;endSize=6;endFill=0;exitX=0.626;exitY=0.15;exitDx=0;exitDy=0;exitPerimeter=0;" parent="1" source="5-8m9FPlLGpZZx9Ya4Tx-7" edge="1">
          <mxGeometry width="100" relative="1" as="geometry">
            <mxPoint x="136" y="520" as="sourcePoint" />
            <mxPoint x="136" y="440" as="targetPoint" />
          </mxGeometry>
        </mxCell>
        <mxCell id="5-8m9FPlLGpZZx9Ya4Tx-42" value="" style="edgeStyle=orthogonalEdgeStyle;html=1;endArrow=none;elbow=vertical;startArrow=open;startFill=0;strokeColor=#000066;rounded=0;fontFamily=Helvetica;fontSize=12;fontColor=#232F3E;strokeWidth=2;endSize=6;" parent="1" edge="1">
          <mxGeometry width="100" relative="1" as="geometry">
            <mxPoint x="340" y="220" as="sourcePoint" />
            <mxPoint x="180" y="220" as="targetPoint" />
            <Array as="points">
              <mxPoint x="180" y="220" />
            </Array>
          </mxGeometry>
        </mxCell>
        <mxCell id="5-8m9FPlLGpZZx9Ya4Tx-43" value="" style="edgeStyle=orthogonalEdgeStyle;html=1;endArrow=none;elbow=vertical;startArrow=open;startFill=0;strokeColor=#000066;rounded=0;fontFamily=Helvetica;fontSize=12;fontColor=#232F3E;strokeWidth=2;endSize=6;exitX=0.3;exitY=0.688;exitDx=0;exitDy=0;exitPerimeter=0;" parent="1" source="5-8m9FPlLGpZZx9Ya4Tx-13" edge="1">
          <mxGeometry width="100" relative="1" as="geometry">
            <mxPoint x="311" y="340" as="sourcePoint" />
            <mxPoint x="180" y="230" as="targetPoint" />
            <Array as="points">
              <mxPoint x="261" y="340" />
              <mxPoint x="261" y="230" />
            </Array>
          </mxGeometry>
        </mxCell>
        <mxCell id="5-8m9FPlLGpZZx9Ya4Tx-44" value="&lt;font color=&quot;#ffffff&quot; style=&quot;font-size: 23px&quot;&gt;3&lt;/font&gt;" style="rounded=1;whiteSpace=wrap;html=1;strokeWidth=2;fillColor=#0066CC;gradientColor=none;strokeColor=#6c8ebf;aspect=fixed;" parent="1" vertex="1">
          <mxGeometry x="50" y="130" width="30" height="30" as="geometry" />
        </mxCell>
        <mxCell id="5-8m9FPlLGpZZx9Ya4Tx-45" value="&lt;font color=&quot;#ffffff&quot; style=&quot;font-size: 23px&quot;&gt;4&lt;/font&gt;" style="rounded=1;whiteSpace=wrap;html=1;strokeWidth=2;fillColor=#0066CC;gradientColor=none;strokeColor=#6c8ebf;aspect=fixed;" parent="1" vertex="1">
          <mxGeometry x="290" y="130" width="30" height="30" as="geometry" />
        </mxCell>
        <mxCell id="5-8m9FPlLGpZZx9Ya4Tx-47" value="&lt;h2&gt;Audit Account&lt;/h2&gt;" style="text;html=1;strokeColor=none;fillColor=none;align=center;verticalAlign=middle;whiteSpace=wrap;rounded=0;dashed=0;sketch=0;pointerEvents=1;fontFamily=Helvetica;fontSize=12;fontColor=#232F3E;" parent="1" vertex="1">
          <mxGeometry x="-62.5" y="80" width="165" height="30" as="geometry" />
        </mxCell>
        <mxCell id="5-8m9FPlLGpZZx9Ya4Tx-48" value="&lt;h2&gt;Member Accounts&lt;/h2&gt;" style="text;html=1;strokeColor=none;fillColor=none;align=center;verticalAlign=middle;whiteSpace=wrap;rounded=0;dashed=0;sketch=0;pointerEvents=1;fontFamily=Helvetica;fontSize=12;fontColor=#232F3E;" parent="1" vertex="1">
          <mxGeometry x="-62.5" y="470.00000000000006" width="165" height="30" as="geometry" />
        </mxCell>
        <mxCell id="fEz5hqVPUl8tqXKyQR6N-1" value="update finding status to &#39;RESOLVE&#39;" style="text;html=1;strokeColor=none;fillColor=none;align=center;verticalAlign=middle;whiteSpace=wrap;rounded=0;fontStyle=1" vertex="1" parent="1">
          <mxGeometry x="-230" y="540" width="260" height="30" as="geometry" />
        </mxCell>
      </root>
    </mxGraphModel>
  </diagram>
</mxfile>
